<svg xmlns="http://www.w3.org/2000/svg" style="display:none">
  <symbol id="icon-mark" viewBox="0 0 24 24" fill="none" stroke="currentColor" stroke-width="2" stroke-linecap="round" stroke-linejoin="round">
    <path d="M12 2l7 4v6c0 5-3.5 8.5-7 10-3.5-1.5-7-5-7-10V6l7-4z"/>
    <path d="M8 10l4 4 4-4"/>
  </symbol>
  <symbol id="icon-menu" viewBox="0 0 24 24" fill="none" stroke="currentColor" stroke-width="2" stroke-linecap="round">
    <path d="M4 6h16M4 12h16M4 18h16"/>
  </symbol>
  <symbol id="icon-phone" viewBox="0 0 24 24" fill="none" stroke="currentColor" stroke-width="2" stroke-linecap="round" stroke-linejoin="round">
    <path d="M22 16.92v3a2 2 0 0 1-2.18 2A19.8 19.8 0 0 1 3.1 5.18 2 2 0 0 1 5.1 3h3a2 2 0 0 1 2 1.72c.12.9.33 1.77.62 2.6a2 2 0 0 1-.45 2.11L9.1 10.9a16 16 0 0 0 4 4l1.47-1.17a2 2 0 0 1 2.11-.45c.83.29 1.7.5 2.6.62A2 2 0 0 1 22 16.92z"/>
  </symbol>
  <symbol id="icon-mail" viewBox="0 0 24 24" fill="none" stroke="currentColor" stroke-width="2" stroke-linecap="round" stroke-linejoin="round">
    <path d="M4 4h16v16H4z"/>
    <path d="M22 6l-10 7L2 6"/>
  </symbol>
  <symbol id="icon-home" viewBox="0 0 24 24" fill="none" stroke="currentColor" stroke-width="2" stroke-linecap="round" stroke-linejoin="round">
    <path d="M3 11l9-8 9 8"/>
    <path d="M9 22V12h6v10"/>
  </symbol>
  <symbol id="icon-briefcase" viewBox="0 0 24 24" fill="none" stroke="currentColor" stroke-width="2" stroke-linecap="round" stroke-linejoin="round">
    <path d="M3 7h18v11a2 2 0 0 1-2 2H5a2 2 0 0 1-2-2V7z"/>
    <path d="M8 7V5a2 2 0 0 1 2-2h4a2 2 0 0 1 2 2v2"/>
    <path d="M3 12h18"/>
  </symbol>
  <symbol id="icon-works" viewBox="0 0 24 24" fill="none" stroke="currentColor" stroke-width="2" stroke-linecap="round" stroke-linejoin="round">
    <path d="M3 20h18"/>
    <path d="M5 20v-8l7-4 7 4v8"/>
    <path d="M12 12v8"/>
  </symbol>
  <symbol id="icon-info" viewBox="0 0 24 24" fill="none" stroke="currentColor" stroke-width="2" stroke-linecap="round" stroke-linejoin="round">
    <circle cx="12" cy="12" r="10"/>
    <path d="M12 8h.01"/>
    <path d="M11 12h2v6h-2z"/>
  </symbol>
  <symbol id="icon-user" viewBox="0 0 24 24" fill="none" stroke="currentColor" stroke-width="2" stroke-linecap="round" stroke-linejoin="round">
    <path d="M20 21v-2a4 4 0 0 0-4-4H8a4 4 0 0 0-4 4v2"/>
    <circle cx="12" cy="7" r="4"/>
  </symbol>
  <symbol id="icon-users" viewBox="0 0 24 24" fill="none" stroke="currentColor" stroke-width="2" stroke-linecap="round" stroke-linejoin="round">
    <path d="M17 21v-2a4 4 0 0 0-4-4H7a4 4 0 0 0-4 4v2"/>
    <circle cx="9" cy="7" r="4"/>
    <path d="M23 21v-2a4 4 0 0 0-3-3.87"/>
    <path d="M16 3.13a4 4 0 0 1 0 7.75"/>
  </symbol>
  <symbol id="icon-news" viewBox="0 0 24 24" fill="none" stroke="currentColor" stroke-width="2" stroke-linecap="round" stroke-linejoin="round">
    <path d="M4 5h16v14a2 2 0 0 1-2 2H6a2 2 0 0 1-2-2V5z"/>
    <path d="M8 8h8M8 12h8M8 16h6"/>
  </symbol>
  <symbol id="icon-road" viewBox="0 0 24 24" fill="none" stroke="currentColor" stroke-width="2" stroke-linecap="round" stroke-linejoin="round">
    <path d="M6 21l4-18h4l4 18"/>
    <path d="M12 3v5M12 14v4"/>
  </symbol>
  <symbol id="icon-cone" viewBox="0 0 24 24" fill="none" stroke="currentColor" stroke-width="2" stroke-linecap="round" stroke-linejoin="round">
    <path d="M4 21h16l-7-18h-2l-7 18z"/>
    <path d="M6 15h12M8 11h8"/>
  </symbol>
  <symbol id="icon-shield" viewBox="0 0 24 24" fill="none" stroke="currentColor" stroke-width="2" stroke-linecap="round" stroke-linejoin="round">
    <path d="M12 2l7 4v6c0 5-3.5 8.5-7 10-3.5-1.5-7-5-7-10V6l7-4z"/>
  </symbol>
  <symbol id="icon-award" viewBox="0 0 24 24" fill="none" stroke="currentColor" stroke-width="2" stroke-linecap="round" stroke-linejoin="round">
    <circle cx="12" cy="8" r="6"/>
    <path d="M8 14l-2 8 6-3 6 3-2-8"/>
  </symbol>
  <symbol id="icon-check" viewBox="0 0 24 24" fill="none" stroke="currentColor" stroke-width="2" stroke-linecap="round" stroke-linejoin="round">
    <path d="M20 6L9 17l-5-5"/>
  </symbol>
  <symbol id="icon-leaf" viewBox="0 0 24 24" fill="none" stroke="currentColor" stroke-width="2" stroke-linecap="round" stroke-linejoin="round">
    <path d="M11 3C7.134 3 4 6.134 4 10s3.134 7 7 7 7-3.134 7-7c0-.69-.1-1.355-.29-1.982C16.5 15.5 8.5 12.5 8.5 7.5 8.5 5.5 9.5 4 11 3z"/>
  </symbol>
</svg>

